<svg width="43" height="43" fill="none" xmlns="http://www.w3.org/2000/svg"><circle cx="21.5" cy="22.5" r="13.5" fill="#202423"/><path d="M21.5 2C32.27 2 41 10.73 41 21.5S32.27 41 21.5 41a19.41 19.41 0 01-9.809-2.642L2.008 41l2.636-9.688A19.408 19.408 0 012 21.5C2 10.73 10.73 2 21.5 2zm-6.646 10.335l-.39.016a1.855 1.855 0 00-.725.195c-.212.12-.405.27-.573.444-.234.22-.367.412-.51.597a5.323 5.323 0 00-1.103 3.272c.004.955.254 1.886.644 2.755.797 1.76 2.11 3.621 3.841 5.347.417.416.827.833 1.268 1.22a18.423 18.423 0 007.488 3.99l1.107.17c.36.02.722-.008 1.084-.025a3.88 3.88 0 001.625-.45 9.44 9.44 0 00.747-.43s.083-.054.243-.175c.264-.195.425-.334.644-.562a2.23 2.23 0 00.41-.589c.151-.317.303-.924.366-1.429.047-.386.033-.597.027-.727-.008-.209-.181-.425-.37-.517l-1.135-.509s-1.697-.739-2.734-1.21a.968.968 0 00-.343-.08.94.94 0 00-.737.247c-.01-.004-.14.107-1.55 1.815a.683.683 0 01-.718.254 2.797 2.797 0 01-.373-.129c-.241-.101-.325-.14-.491-.21a11.748 11.748 0 01-3.071-1.956c-.246-.215-.474-.449-.708-.675a12.281 12.281 0 01-1.99-2.473l-.114-.185a1.795 1.795 0 01-.2-.4c-.073-.286.12-.516.12-.516s.474-.52.694-.8c.214-.273.396-.538.513-.727.23-.37.302-.751.181-1.046a162.35 162.35 0 00-1.692-3.98c-.115-.26-.457-.448-.767-.485a8.24 8.24 0 00-.316-.031 6.605 6.605 0 00-.786.008l.392-.016.002.002z" fill="#DCF159"/></svg>