<svg width="39" height="39" fill="none" xmlns="http://www.w3.org/2000/svg"><g clip-path="url(#clip0_337_1394)"><path d="M19.5 0A19.506 19.506 0 000 19.5 19.506 19.506 0 0019.5 39 19.506 19.506 0 0039 19.5 19.506 19.506 0 0019.5 0z" fill="#DCF159"/><path d="M8.827 19.294c5.685-2.476 9.475-4.11 11.37-4.898 5.418-2.253 6.542-2.644 7.277-2.657.161-.003.52.037.755.227.195.16.25.376.277.528.025.152.058.498.03.768-.292 3.083-1.562 10.566-2.208 14.02-.271 1.46-.81 1.95-1.332 1.998-1.133.104-1.992-.748-3.09-1.467-1.714-1.125-2.683-1.825-4.35-2.923-1.926-1.269-.677-1.966.42-3.106.287-.298 5.278-4.836 5.372-5.248.012-.052.024-.243-.091-.345-.113-.101-.28-.066-.403-.039-.173.04-2.912 1.851-8.226 5.437-.777.534-1.48.795-2.115.78-.694-.014-2.035-.393-3.031-.716-1.219-.397-2.191-.607-2.106-1.282.043-.35.527-.71 1.45-1.077z" fill="#202423"/></g><defs><clipPath id="clip0_337_1394"><path fill="#fff" d="M0 0h39v39H0z"/></clipPath></defs></svg>