<svg width="24" height="24" viewBox="0 0 24 24" fill="none" xmlns="http://www.w3.org/2000/svg">
<path d="M14.25 2.62502C13.5108 2.62304 12.7785 2.76757 12.0954 3.05027C11.4124 3.33296 10.7921 3.74821 10.2705 4.27202L3.378 11.166C3.16656 11.3771 3.04761 11.6635 3.04733 11.9622C3.04705 12.261 3.16546 12.5476 3.3765 12.759C3.58755 12.9705 3.87395 13.0894 4.17269 13.0897C4.47144 13.09 4.75806 12.9716 4.9695 12.7605L11.865 5.86352C12.5065 5.2738 13.351 4.95477 14.2221 4.97306C15.0933 4.99136 15.9237 5.34558 16.5398 5.96171C17.1559 6.57784 17.5102 7.40823 17.5285 8.27938C17.5468 9.15053 17.2277 9.99506 16.638 10.6365L8.6835 18.591C8.47024 18.7897 8.18817 18.8979 7.89672 18.8928C7.60527 18.8876 7.32719 18.7696 7.12107 18.5635C6.91495 18.3573 6.79688 18.0793 6.79174 17.7878C6.7866 17.4964 6.89478 17.2143 7.0935 17.001L15.048 9.04652C15.2594 8.83528 15.3783 8.54869 15.3785 8.2498C15.3786 7.95091 15.26 7.66421 15.0488 7.45277C14.8375 7.24133 14.5509 7.12246 14.252 7.12232C13.9531 7.12218 13.6664 7.24078 13.455 7.45202L5.499 15.4095C4.90929 16.051 4.59025 16.8955 4.60855 17.7667C4.62685 18.6378 4.98106 19.4682 5.5972 20.0843C6.21333 20.7005 7.04371 21.0547 7.91487 21.073C8.78602 21.0913 9.63054 20.7722 10.272 20.1825L18.2265 12.228C18.7507 11.7069 19.1663 11.087 19.4492 10.4042C19.7322 9.72133 19.8769 8.98915 19.875 8.25002C19.8734 6.75866 19.2803 5.32885 18.2257 4.2743C17.1712 3.21975 15.7414 2.62661 14.25 2.62502Z" fill="#4646B6"/>
</svg>
