<svg width="43" height="43" viewBox="0 0 43 43" fill="none" xmlns="http://www.w3.org/2000/svg">
<circle cx="21.5" cy="22.5" r="13.5" fill="#202423"/>
<path d="M21.5 2C32.2699 2 41 10.7301 41 21.5C41 32.2698 32.2699 41 21.5 41C18.0539 41.0055 14.6685 40.0936 11.6915 38.3577L2.00783 41L4.64423 31.3124C2.90696 28.3345 1.99427 24.9476 2.00003 21.5C2.00003 10.7301 10.7302 2 21.5 2ZM14.8544 12.335L14.4644 12.3506C14.2119 12.366 13.9652 12.4323 13.739 12.5456C13.5275 12.6654 13.3344 12.8151 13.1657 12.9902C12.9317 13.2105 12.7991 13.4016 12.6568 13.5869C11.9355 14.5247 11.5472 15.676 11.5531 16.859C11.557 17.8145 11.8066 18.7446 12.1966 19.6143C12.9941 21.3732 14.3065 23.2355 16.0381 24.9612C16.4554 25.3766 16.8649 25.7939 17.3056 26.1819C19.4572 28.0763 22.0212 29.4424 24.7936 30.1716L25.9012 30.3413C26.2619 30.3608 26.6227 30.3335 26.9854 30.3159C27.5533 30.2866 28.1078 30.1328 28.6097 29.8655C28.8651 29.7339 29.1143 29.5908 29.3566 29.4365C29.3566 29.4365 29.4404 29.3819 29.6003 29.261C29.8636 29.066 30.0254 28.9275 30.2438 28.6994C30.4057 28.5317 30.5461 28.3347 30.6533 28.1105C30.8054 27.7926 30.9575 27.1862 31.0199 26.6811C31.0667 26.295 31.0531 26.0844 31.0472 25.9538C31.0394 25.7451 30.8659 25.5287 30.6767 25.437L29.5418 24.9281C29.5418 24.9281 27.8453 24.189 26.8079 23.7171C26.6994 23.6697 26.583 23.6426 26.4647 23.6372C26.3313 23.6235 26.1965 23.6385 26.0694 23.6812C25.9422 23.7239 25.8257 23.7934 25.7276 23.8848C25.7179 23.8809 25.5872 23.9921 24.1774 25.7003C24.0964 25.809 23.985 25.8912 23.8572 25.9363C23.7294 25.9815 23.591 25.9876 23.4598 25.9538C23.3327 25.9197 23.2083 25.8767 23.0873 25.8251C22.8455 25.7237 22.7617 25.6847 22.5959 25.6145C21.4767 25.1261 20.4406 24.4662 19.5247 23.6586C19.279 23.4441 19.0508 23.2101 18.8168 22.9839C18.0497 22.2492 17.3811 21.4181 16.8278 20.5113L16.7128 20.3261C16.6301 20.2016 16.5633 20.0673 16.5139 19.9263C16.4398 19.6397 16.6328 19.4096 16.6328 19.4096C16.6328 19.4096 17.1067 18.8909 17.327 18.6101C17.5415 18.3371 17.7229 18.0719 17.8399 17.8827C18.07 17.5122 18.1421 17.132 18.0212 16.8375C17.4752 15.5037 16.9097 14.1758 16.3286 12.8576C16.2136 12.5963 15.8723 12.4091 15.5623 12.372C15.457 12.3603 15.3517 12.3486 15.2464 12.3408C14.9845 12.3278 14.7221 12.3304 14.4605 12.3486L14.8525 12.333L14.8544 12.335Z" fill="#DCF159"/>
</svg>
